<svg xmlns="http://www.w3.org/2000/svg" width="611" height="374" viewBox="0 0 611 374">
<g>
<path d="M 400.17 327.02 C378.76,323.67 365.36,319.65 348.48,311.51 C332.94,304.02 323.06,297.09 311.29,285.44 L 301.08 275.33 L 291.45 284.67 C274.82,300.82 253.61,313.37 232.71,319.42 C218.70,323.47 206.61,325.00 188.64,325.00 C165.08,325.00 151.75,322.44 131.00,313.94 C122.17,310.32 119.38,309.62 113.43,309.57 C106.38,309.50 106.34,309.51 101.13,314.20 C97.13,317.79 94.84,319.05 91.35,319.57 C83.20,320.80 75.09,316.86 72.38,310.36 C68.34,300.70 73.36,291.17 83.91,288.43 C90.74,286.66 94.84,287.97 101.57,294.06 C106.06,298.13 107.68,299.00 110.76,299.00 C112.82,299.00 122.82,299.50 133.00,300.12 C195.44,303.90 236.03,285.32 279.40,233.10 C299.30,209.14 337.40,173.57 352.76,164.61 C353.45,164.20 351.75,166.87 348.98,170.53 C339.12,183.55 336.00,192.44 336.00,207.47 C336.00,226.15 341.49,239.58 354.45,252.59 C372.35,270.56 396.97,279.60 431.00,280.70 C457.84,281.56 471.83,277.88 475.38,269.01 C477.64,263.37 477.67,242.20 475.43,237.87 C472.54,232.27 470.56,232.00 432.53,232.00 L 398.00 232.00 L 398.00 212.00 C398.00,194.55 398.20,192.00 399.56,192.00 C400.42,192.00 400.85,192.44 400.52,192.97 C399.84,194.06 402.98,194.92 407.50,194.89 C409.15,194.87 413.48,195.32 417.13,195.88 C420.78,196.44 430.23,197.38 438.13,197.97 C467.76,200.19 481.88,206.23 488.07,219.31 C490.69,224.85 491.01,226.61 491.12,236.00 C491.19,241.77 491.57,249.65 491.97,253.50 L 492.69 260.50 L 492.87 254.00 C493.02,249.00 493.30,247.91 494.09,249.27 C494.66,250.25 495.57,250.77 496.11,250.43 C496.73,250.05 496.61,249.23 495.80,248.25 C494.65,246.85 494.75,246.81 496.67,247.83 C497.86,248.47 500.56,249.26 502.67,249.59 C504.78,249.93 506.84,250.40 507.25,250.66 C507.66,250.91 508.00,250.56 508.00,249.87 C508.00,249.07 508.45,249.21 509.25,250.25 C510.09,251.36 512.45,252.00 516.50,252.24 C519.80,252.43 523.44,253.11 524.60,253.75 C526.25,254.66 527.14,254.59 528.85,253.40 C530.78,252.04 531.00,252.05 531.00,253.44 C531.00,254.30 531.56,255.05 532.25,255.12 C532.94,255.18 533.95,255.34 534.50,255.46 C535.05,255.59 536.09,255.76 536.81,255.85 C537.53,255.93 537.86,256.42 537.54,256.93 C537.23,257.44 537.49,258.19 538.14,258.59 C538.87,259.04 539.04,258.88 538.60,258.15 C537.55,256.47 539.60,256.74 541.39,258.54 C542.77,259.92 542.96,259.04 543.25,249.79 C543.43,244.13 543.67,250.35 543.79,263.61 L 544.00 287.72 L 541.40 291.61 C530.38,308.14 506.05,320.88 475.50,326.13 C457.55,329.22 417.29,329.70 400.17,327.02 ZM 91.39 310.87 C96.90,308.36 97.04,299.81 91.60,297.16 C86.17,294.52 81.00,297.81 81.00,303.92 C81.00,307.62 82.66,310.06 86.00,311.29 C88.27,312.13 88.70,312.09 91.39,310.87 ZM 412.77 295.29 C411.27,295.06 408.57,295.05 406.77,295.28 C404.97,295.50 406.20,295.68 409.50,295.69 C412.80,295.70 414.27,295.51 412.77,295.29 ZM 434.73 295.40 C434.40,295.06 433.53,295.03 432.81,295.32 C432.01,295.64 432.25,295.87 433.42,295.92 C434.47,295.96 435.06,295.73 434.73,295.40 ZM 400.75 294.31 C399.79,294.06 398.21,294.06 397.25,294.31 C396.29,294.56 397.08,294.77 399.00,294.77 C400.92,294.77 401.71,294.56 400.75,294.31 ZM 390.00 292.46 C386.98,291.70 383.83,291.11 383.00,291.14 C380.61,291.23 390.23,293.80 393.00,293.82 C394.38,293.82 393.02,293.21 390.00,292.46 ZM 379.50 290.00 C378.40,289.53 376.83,289.14 376.00,289.14 C375.05,289.14 375.24,289.46 376.50,290.00 C377.60,290.47 379.17,290.86 380.00,290.86 C380.95,290.86 380.76,290.54 379.50,290.00 ZM 359.92 283.62 C358.90,282.70 351.00,279.01 351.00,279.46 C351.00,280.07 358.16,283.89 359.42,283.96 C359.92,283.98 360.15,283.83 359.92,283.62 ZM 23.97 288.75 C17.42,285.44 14.73,280.89 15.21,273.95 C15.68,267.30 17.93,263.80 23.57,261.01 C31.23,257.22 39.99,259.11 45.65,265.79 L 48.79 269.50 L 84.15 270.12 C122.62,270.79 120.19,270.48 146.50,278.00 C176.75,286.66 213.07,280.31 221.41,264.90 C224.15,259.84 223.02,256.60 217.22,252.92 C208.47,247.37 196.22,244.60 164.50,240.98 C117.70,235.65 93.34,228.68 72.11,214.57 C63.88,209.10 50.28,195.15 46.07,187.86 C32.24,163.88 35.12,133.25 53.05,113.69 C75.11,89.61 108.22,77.95 154.29,78.02 C196.06,78.09 228.68,84.88 258.50,99.73 C267.74,104.33 286.00,115.85 286.00,117.07 C286.00,117.45 282.96,120.39 279.25,123.60 C275.54,126.82 267.92,133.87 262.31,139.27 L 252.13 149.08 L 248.31 147.43 C237.17,142.61 222.22,137.42 212.13,134.87 C176.53,125.86 129.74,127.59 113.99,138.50 C109.86,141.37 107.00,146.94 107.00,152.12 C107.00,159.55 113.43,167.14 124.24,172.45 C136.32,178.39 147.93,180.81 187.00,185.53 C220.27,189.55 246.40,198.79 263.27,212.53 C269.07,217.24 270.14,217.78 270.70,216.27 C271.64,213.75 285.85,193.53 295.82,180.53 C321.03,147.68 343.72,124.54 362.90,112.14 C377.59,102.65 398.33,94.09 415.50,90.44 C423.10,88.83 449.24,88.09 456.00,89.30 C457.38,89.54 459.40,89.86 460.50,89.99 C461.96,90.17 461.68,90.43 459.50,90.94 C457.85,91.33 455.74,91.27 454.81,90.82 C453.88,90.36 452.87,90.40 452.56,90.90 C452.25,91.40 453.39,92.29 455.08,92.88 C457.04,93.56 457.89,94.37 457.42,95.13 C456.96,95.88 457.12,96.04 457.86,95.59 C458.51,95.19 458.77,94.44 458.46,93.93 C457.55,92.46 459.43,92.85 461.56,94.57 C462.63,95.44 462.83,95.80 462.00,95.38 C460.71,94.72 460.69,94.85 461.87,96.31 C463.11,97.84 462.76,98.43 460.79,98.13 C460.39,98.07 460.36,98.78 460.72,99.71 C461.13,100.77 461.52,100.95 461.77,100.20 C461.99,99.54 462.83,99.00 463.64,99.00 C464.54,99.00 464.84,99.49 464.40,100.25 C464.00,100.94 464.05,101.17 464.50,100.76 C464.95,100.35 466.01,100.58 466.85,101.26 C468.07,102.25 468.23,102.25 467.63,101.25 C467.22,100.56 467.31,100.00 467.83,100.00 C468.35,100.00 468.72,101.69 468.64,103.75 C468.55,106.21 468.92,107.42 469.71,107.26 C470.42,107.12 470.69,107.65 470.35,108.52 C469.95,109.59 470.24,109.85 471.36,109.41 C472.24,109.08 473.67,109.52 474.55,110.40 C475.42,111.28 475.66,112.00 475.07,112.00 C474.48,112.00 474.00,112.45 474.00,113.00 C474.00,113.55 474.67,114.00 475.50,114.00 C476.33,114.00 477.00,114.48 477.00,115.06 C477.00,115.64 477.45,115.84 478.00,115.50 C478.55,115.16 479.00,115.43 479.00,116.10 C479.00,116.85 479.74,116.64 480.98,115.52 C482.82,113.85 483.00,113.84 483.61,115.42 C483.97,116.35 484.78,116.91 485.42,116.67 C486.07,116.42 486.66,117.08 486.73,118.13 C486.81,119.18 486.46,119.78 485.94,119.46 C485.42,119.14 485.00,119.32 485.00,119.85 C485.00,120.38 484.10,120.58 483.00,120.29 C481.57,119.92 481.00,120.26 481.00,121.50 C481.00,122.73 481.57,123.08 482.97,122.72 C484.05,122.44 484.89,122.50 484.85,122.85 C484.60,124.78 485.18,125.10 486.75,123.87 C488.32,122.64 488.36,122.68 487.20,124.16 C486.42,125.17 486.28,126.06 486.87,126.42 C487.40,126.74 488.09,126.45 488.41,125.76 C488.86,124.80 489.14,124.79 489.56,125.69 C489.97,126.55 495.72,126.90 510.25,126.96 C521.31,127.00 530.62,127.28 530.92,127.59 C531.50,128.17 481.61,127.48 447.04,126.43 C417.78,125.54 401.57,128.03 378.95,136.87 C359.19,144.59 340.96,156.56 317.48,177.23 C303.31,189.69 279.95,213.79 269.72,226.50 C245.46,256.63 222.40,274.88 198.45,282.90 C175.94,290.44 152.76,291.00 129.00,284.56 L 115.50 280.91 L 82.89 280.31 L 50.28 279.70 L 45.79 283.84 C37.81,291.20 31.59,292.60 23.97,288.75 ZM 36.81 280.96 C40.09,277.91 40.09,272.54 36.83,269.75 C32.15,265.76 24.00,269.24 24.00,275.22 C24.00,281.60 32.19,285.27 36.81,280.96 ZM 467.53 104.19 C467.22,103.89 466.41,104.19 465.73,104.88 C464.75,105.86 464.87,105.98 466.29,105.44 C467.28,105.06 467.83,104.50 467.53,104.19 ZM 268.75 205.93 C266.68,203.57 266.46,202.94 267.78,203.19 C268.73,203.37 269.94,204.51 270.47,205.73 C271.01,206.94 272.13,208.13 272.97,208.35 C274.34,208.72 274.34,208.78 272.97,208.88 C272.13,208.95 270.23,207.62 268.75,205.93 ZM 239.08 182.42 C239.13,181.25 239.36,181.01 239.68,181.81 C239.97,182.53 239.94,183.40 239.60,183.73 C239.27,184.06 239.04,183.47 239.08,182.42 ZM 241.00 179.29 C241.00,178.71 241.79,177.63 242.75,176.87 C244.37,175.60 244.39,175.65 243.03,177.50 C242.23,178.60 241.44,179.69 241.28,179.92 C241.13,180.15 241.00,179.86 241.00,179.29 ZM 248.00 171.12 C248.00,170.64 248.75,169.63 249.66,168.87 C251.17,167.63 251.22,167.71 250.13,169.75 C248.89,172.08 248.00,172.65 248.00,171.12 ZM 260.00 157.50 C262.99,154.48 265.66,152.00 265.93,152.00 C266.21,152.00 263.99,154.48 261.00,157.50 C258.01,160.52 255.34,163.00 255.07,163.00 C254.79,163.00 257.01,160.52 260.00,157.50 ZM 276.76 141.28 C286.58,131.70 302.53,119.42 313.67,112.88 C326.31,105.45 335.16,100.82 335.69,101.36 C335.97,101.64 334.24,102.85 331.85,104.06 C317.95,111.07 296.10,125.15 293.00,129.09 C292.73,129.44 291.15,130.44 289.50,131.31 C287.85,132.19 283.66,135.56 280.20,138.81 C269.71,148.65 267.81,150.02 276.76,141.28 ZM 542.75 136.34 C543.44,136.06 544.56,136.06 545.25,136.34 C545.94,136.62 545.38,136.84 544.00,136.84 C542.62,136.84 542.06,136.62 542.75,136.34 ZM 552.00 136.75 C552.84,135.91 561.00,131.93 561.00,132.36 C561.00,133.09 556.57,135.69 554.00,136.48 C552.62,136.90 551.72,137.02 552.00,136.75 ZM 537.76 133.93 C536.81,133.37 535.51,131.92 534.88,130.71 C533.94,128.89 534.29,129.02 536.87,131.44 C540.82,135.14 541.07,135.86 537.76,133.93 ZM 544.56 130.09 C544.25,129.59 544.90,129.42 546.00,129.71 C548.33,130.32 548.63,131.00 546.56,131.00 C545.77,131.00 544.87,130.59 544.56,130.09 ZM 564.16 122.00 C564.16,120.62 564.38,120.06 564.66,120.75 C564.94,121.44 564.94,122.56 564.66,123.25 C564.38,123.94 564.16,123.38 564.16,122.00 ZM 502.50 118.00 L 498.50 117.28 L 502.75 117.14 C505.09,117.06 507.00,117.45 507.00,118.00 C507.00,118.55 506.89,118.94 506.75,118.86 C506.61,118.78 504.70,118.39 502.50,118.00 ZM 494.67 117.33 C493.45,116.12 493.98,115.05 495.50,115.64 C496.33,115.95 497.00,116.62 497.00,117.11 C497.00,118.16 495.62,118.29 494.67,117.33 ZM 553.87 116.25 C552.63,114.66 552.66,114.63 554.25,115.87 C555.21,116.63 556.00,117.41 556.00,117.62 C556.00,118.45 555.18,117.92 553.87,116.25 ZM 562.14 115.25 C561.05,112.70 561.08,112.64 562.48,114.44 C563.32,115.51 564.00,116.75 564.00,117.19 C564.00,118.71 563.32,118.00 562.14,115.25 ZM 480.08 113.42 C480.13,112.25 480.36,112.01 480.68,112.81 C480.97,113.53 480.94,114.40 480.60,114.73 C480.27,115.06 480.04,114.47 480.08,113.42 ZM 491.62 112.46 C491.28,111.57 491.04,110.09 491.09,109.17 C491.13,108.25 491.57,108.83 492.05,110.45 C493.00,113.61 492.66,115.17 491.62,112.46 ZM 339.00 99.59 C342.12,97.67 357.09,91.76 357.59,92.26 C357.79,92.46 353.81,94.33 348.73,96.42 C337.51,101.02 335.75,101.60 339.00,99.59 ZM 579.75 99.34 C580.44,99.06 581.56,99.06 582.25,99.34 C582.94,99.62 582.38,99.84 581.00,99.84 C579.62,99.84 579.06,99.62 579.75,99.34 ZM 584.81 99.32 C585.53,99.03 586.40,99.06 586.73,99.40 C587.06,99.73 586.47,99.96 585.42,99.92 C584.25,99.87 584.01,99.64 584.81,99.32 ZM 574.00 97.50 C572.62,96.71 571.95,96.07 572.50,96.07 C573.05,96.07 574.62,96.71 576.00,97.50 C577.38,98.29 578.05,98.93 577.50,98.93 C576.95,98.93 575.38,98.29 574.00,97.50 ZM 362.00 90.73 C362.00,90.03 378.08,85.74 378.63,86.29 C378.87,86.54 376.24,87.50 372.78,88.44 C363.36,90.99 362.00,91.28 362.00,90.73 ZM 525.75 90.25 C533.04,90.08 544.96,90.08 552.25,90.25 C559.54,90.42 553.58,90.56 539.00,90.56 C524.42,90.56 518.46,90.42 525.75,90.25 ZM 574.56 89.29 C574.02,87.87 574.14,87.75 575.12,88.73 C575.81,89.41 576.11,90.22 575.81,90.53 C575.50,90.83 574.94,90.28 574.56,89.29 ZM 598.23 85.00 C598.23,83.07 598.44,82.29 598.69,83.25 C598.94,84.21 598.94,85.79 598.69,86.75 C598.44,87.71 598.23,86.93 598.23,85.00 ZM 380.75 85.34 C381.44,85.06 382.56,85.06 383.25,85.34 C383.94,85.62 383.38,85.84 382.00,85.84 C380.62,85.84 380.06,85.62 380.75,85.34 ZM 385.75 84.34 C386.44,84.06 387.56,84.06 388.25,84.34 C388.94,84.62 388.38,84.84 387.00,84.84 C385.62,84.84 385.06,84.62 385.75,84.34 ZM 390.75 83.34 C391.44,83.06 392.56,83.06 393.25,83.34 C393.94,83.62 393.38,83.84 392.00,83.84 C390.62,83.84 390.06,83.62 390.75,83.34 ZM 396.75 82.34 C397.44,82.06 398.56,82.06 399.25,82.34 C399.94,82.62 399.38,82.84 398.00,82.84 C396.62,82.84 396.06,82.62 396.75,82.34 ZM 402.25 81.31 C403.21,81.06 404.79,81.06 405.75,81.31 C406.71,81.56 405.92,81.77 404.00,81.77 C402.08,81.77 401.29,81.56 402.25,81.31 ZM 412.25 80.31 C413.21,80.06 414.79,80.06 415.75,80.31 C416.71,80.56 415.92,80.77 414.00,80.77 C412.08,80.77 411.29,80.56 412.25,80.31 ZM 435.75 79.34 C436.44,79.06 437.56,79.06 438.25,79.34 C438.94,79.62 438.38,79.84 437.00,79.84 C435.62,79.84 435.06,79.62 435.75,79.34 ZM 594.40 75.75 L 592.50 73.50 L 594.75 75.40 C595.99,76.45 597.00,77.47 597.00,77.65 C597.00,78.46 596.20,77.86 594.40,75.75 ZM 573.73 71.88 C574.41,71.19 575.22,70.89 575.53,71.19 C575.83,71.50 575.28,72.06 574.29,72.44 C572.87,72.98 572.75,72.86 573.73,71.88 Z" fill="rgba(0,0,0,1)"/>
</g>
</svg>